<?xml version="1.0" standalone="no"?><!DOCTYPE svg PUBLIC "-//W3C//DTD SVG 1.1//EN" "http://www.w3.org/Graphics/SVG/1.1/DTD/svg11.dtd"><svg t="1512697622152" class="icon" style="" viewBox="0 0 1024 1024" version="1.1" xmlns="http://www.w3.org/2000/svg" p-id="4166" xmlns:xlink="http://www.w3.org/1999/xlink" width="14" height="14"><defs><style type="text/css"></style></defs><path d="M518.656 891.712a2084.224 2084.224 0 0 0 135.04-157.696c31.04-40.32 58.432-79.488 81.216-116.8 45.504-74.88 70.912-139.648 70.912-193.536 0-180.864-144.448-327.68-322.944-327.68C304.448 96 160 242.816 160 423.68c0 53.888 25.408 118.656 70.912 193.536 22.784 37.312 50.112 76.48 81.216 116.8a2084.224 2084.224 0 0 0 147.968 171.136l22.784 23.232 22.848-23.232c2.432-2.432 6.784-7.04 12.928-13.44z m-12.928-31.424a2021.248 2021.248 0 0 1-142.912-165.376 1242.752 1242.752 0 0 1-77.184-110.976C245.632 518.272 224 462.976 224 423.68c0-145.728 116.032-263.68 258.88-263.68 142.912 0 258.944 117.952 258.944 263.68 0 39.36-21.632 94.592-61.632 160.256-21.376 35.2-47.488 72.448-77.184 110.976a2021.248 2021.248 0 0 1-142.912 165.376h45.632z" p-id="4167" fill="#cdcdcd"></path><path d="M624 418.88a141.12 141.12 0 1 0-282.24 0 141.12 141.12 0 0 0 282.24 0z m-218.24 0a77.12 77.12 0 1 1 154.24 0 77.12 77.12 0 0 1-154.24 0z" p-id="4168" fill="#cdcdcd"></path></svg>